<?xml version="1.0" encoding="iso-8859-1"?>
<!-- Generator: Adobe Illustrator 19.0.0, SVG Export Plug-In . SVG Version: 6.00 Build 0)  -->
<svg version="1.1" id="Layer_1" xmlns="http://www.w3.org/2000/svg" xmlns:xlink="http://www.w3.org/1999/xlink" x="0px" y="0px"
	 viewBox="0 0 512 512" style="enable-background:new 0 0 512 512;" xml:space="preserve">
<path style="fill:#FA6E51;" d="M0,256.006C0,397.402,114.606,512.004,255.996,512C397.394,512.004,512,397.402,512,256.006
	C512.009,114.61,397.394,0,255.996,0C114.606,0,0,114.614,0,256.006z"/>
<path style="fill:#E8573F;" d="M510.78,281.037c-15.515-15.547-136.157-135.723-136.883-136.034
	c-7.117-12.897-20.437-20.341-38.14-20.512c-0.207-0.002-3.631,0.501-4.803,1.367c-1.745,1.287-2.88,3.351-2.88,5.686
	c0,0.167,0.014,0.333,0.025,0.497c0.003,0.048,0.029,0.102,0.007,0.144c-0.293,0.564,1.941,3.727,3.628,5.413
	c2.133,2.133,34.133,32,34.133,32v8.533l-94.263-86.938c-1.381-1.381-3.189-2.071-4.998-2.071c-0.8,0-4.481,1.553-4.998,2.071
	c-2.762,2.762-2.762,7.235,0,9.998c0,0,22.766,22.834,22.733,22.867c-0.004,0.004,0.261,0.278,0.388,0.414H176.691
	c-25.74,0-44.415,19.943-44.415,47.419v160.15c0,0.931,1.718,12.254,1.754,12.375c2.422,8.4,7.266,15.798,13.84,21.579
	c0.146,0.15,55.649,55.766,65.244,65.337c21.983,22.031,53.839,53.882,78.445,78.196
	C407.983,493.355,499.342,398.912,510.78,281.037z"/>
<g>
	<path style="fill:#F4F6F9;" d="M183.588,364.852c-18.02,0-37.172-11.495-37.172-32.809v-160.15
		c0-19.595,12.448-33.278,30.275-33.278h108.196l-23.281,23.281c-2.762,2.762-2.762,7.235,0,9.997
		c1.381,1.381,3.189,2.071,4.998,2.071c1.809,0,3.618-0.69,4.998-2.071l35.349-35.349c2.762-2.762,2.762-7.235,0-9.997
		l-35.349-35.349c-2.762-2.762-7.235-2.762-9.997,0c-2.762,2.762-2.762,7.235,0,9.997l23.281,23.281H176.691
		c-25.739,0-44.415,19.942-44.415,47.419v160.15c0,26.325,22.542,46.948,51.312,46.948c3.908,0,7.07-3.163,7.07-7.07
		C190.658,368.014,187.497,364.852,183.588,364.852z"/>
	<path style="fill:#F4F6F9;" d="M335.143,124.475c-3.908,0-7.07,3.166-7.07,7.07c0,3.904,3.163,7.07,7.07,7.07
		c19.629,0,30.441,11.136,30.441,31.359v159.322c0,17.696-9.493,35.556-30.697,35.556h-93.635l23.281-23.28
		c2.762-2.762,2.762-7.235,0-9.997c-2.762-2.762-7.235-2.762-9.997,0l-35.349,35.349c-2.762,2.762-2.762,7.235,0,9.997
		l35.349,35.349c1.381,1.381,3.189,2.071,4.998,2.071c1.809,0,3.618-0.69,4.998-2.071c2.762-2.762,2.762-7.235,0-9.997
		l-23.281-23.281h93.635c26.402,0,44.836-20.436,44.836-49.697V169.973C379.724,141.908,362.643,124.475,335.143,124.475z"/>
</g>
<g>
</g>
<g>
</g>
<g>
</g>
<g>
</g>
<g>
</g>
<g>
</g>
<g>
</g>
<g>
</g>
<g>
</g>
<g>
</g>
<g>
</g>
<g>
</g>
<g>
</g>
<g>
</g>
<g>
</g>
</svg>
